<svg width="374" height="55" viewBox="0 0 374 55" fill="none" xmlns="http://www.w3.org/2000/svg">
    <path d="M22.11 38.8481V49.7065H16.6808L0.393248 33.4189V22.5605L16.6808 6.27295H22.11V17.1313L11.2516 27.9897L22.11 38.8481ZM127.974 22.4248H117.116L106.257 33.2832H127.974V44.1416H117.116V55H84.5405L73.6821 44.1416H117.116L106.257 33.2832H84.5405V22.4248H100.828L111.686 11.5664H73.6821L84.5405 0.708025H111.686V11.5664H127.974V22.4248ZM73.6821 44.1416V55H62.8237V0.708025H73.6821V11.5664V44.1416ZM145.59 11.5664L156.448 0.708025H178.165V11.5664H145.59ZM145.59 11.5664V33.2832H151.019L161.877 22.4248H178.165V11.5664H189.023V55H178.165V33.2832H167.307L156.448 44.1416H145.59V55H134.731V0.708025H145.59V11.5664ZM195.836 22.4248V11.5664H206.695V22.4248H228.412L239.27 33.2832H217.553L206.695 22.4248H195.836ZM250.128 22.4248H239.27V11.5664H206.695V0.708025H239.27L250.128 11.5664V22.4248ZM206.695 33.2832V44.1416H239.27V33.2832H250.128V44.1416H239.27V55H206.695L195.836 44.1416V33.2832H206.695ZM256.941 55V0.708025H267.8V55H256.941ZM267.8 11.5664L278.59 0.708025H311.233V11.5664H267.8ZM267.8 44.1416H311.233V55H278.59L267.8 44.1416ZM267.8 22.4248H300.307V33.2832H278.59L267.8 22.4248ZM351.979 17.1313V6.27295H357.408L373.696 22.5605V33.4189L357.408 49.7065H351.979V38.8481L362.837 27.9897L351.979 17.1313Z"
          fill="white"/>
</svg>
