<svg width="463" height="519" viewBox="0 0 463 519" fill="none" xmlns="http://www.w3.org/2000/svg">
    <path d="M443.276 1.35869e-05L19.8094 0C8.9159 0 0.084976 8.86518 0.0848055 19.7587C0.0813351 241.531 0.0215898 413.784 0.00452039 458.64C0.00159083 466.338 0.875702 474.483 7.13267 478.968C9.90207 480.953 13.7161 482.912 18.9527 484.412C24.4253 485.98 29.9296 488.419 32.1676 493.653C33.9077 497.723 35.1515 502.392 36.7136 507.184C39.1721 514.725 46.5517 519.001 54.4833 518.986C93.2242 518.91 161.13 518.564 210.993 518.564C229.755 518.564 242.998 470.48 256.773 470.48C314.275 470.48 376.697 470.624 440.24 470.655C452.809 470.661 463 460.471 463 447.902V19.7245C463 8.83096 454.169 1.39209e-05 443.276 1.35869e-05Z"
          fill="#0038FF"/>
</svg>
