<svg width="99" height="29" viewBox="0 0 99 29" fill="none" xmlns="http://www.w3.org/2000/svg">
<g id="Logo">
<path id="Vector" d="M10.7137 5.23926V13.0989H3.493V5.23926H0.0671997V24.0013H3.49393V16.3967H10.7128V24.0013H14.1404V5.23926H10.7137ZM25.1088 17.9371C25.1088 18.6891 24.81 19.4103 24.2783 19.9421C23.7465 20.4738 23.0253 20.7725 22.2733 20.7725C21.5212 20.7725 20.8 20.4738 20.2682 19.9421C19.7365 19.4103 19.4377 18.6891 19.4377 17.9371V9.90031H16.1872V17.9371C16.1872 19.5496 16.8278 21.096 17.968 22.2362C19.1082 23.3764 20.6547 24.017 22.2672 24.017C23.8797 24.017 25.4262 23.3764 26.5664 22.2362C27.7067 21.096 28.3472 19.5496 28.3472 17.9371V9.90031H25.1088V17.9371ZM49.1942 10.7285C49.1942 9.0805 50.2839 8.55838 51.4775 8.55838C52.4401 8.55838 53.7106 9.29102 54.5425 10.1795L56.6709 7.66994C55.6081 6.23249 53.4528 5.23926 51.688 5.23926C48.1611 5.23926 45.6107 7.30455 45.6107 10.7285C45.6107 17.0811 53.3749 15.0649 53.3749 18.6205C53.3749 19.7167 52.3103 20.6849 51.0917 20.6849C49.1692 20.6849 48.5459 19.7455 47.6631 18.7513L45.3001 21.208C46.8117 23.0627 48.6758 24.005 50.908 24.005C54.2587 24.005 56.9537 21.9146 56.9537 18.6465C56.9537 11.5947 49.1886 13.7861 49.1886 10.7285M97.2278 21.0039C95.3072 21.0039 94.7609 20.173 94.7609 18.9006V13.2667H97.7471V10.4122H94.7609V6.64611L91.465 8.12529V19.6008C91.465 22.536 93.4904 24.0152 96.267 24.0152C96.7029 24.0226 97.1388 23.9873 97.5672 23.9113L98.3713 20.9511C98.0087 20.9761 97.5923 21.0012 97.2278 21.0012M37.4821 9.99398C35.8721 9.99398 34.7481 10.4614 33.6612 11.527V5.35147H30.4061V16.7982C30.4061 21.0828 33.5036 24.0189 36.985 24.0189C40.8467 24.0189 44.2438 21.0308 44.2438 17.0078C44.2438 13.0349 41.1175 9.99676 37.4821 9.99676M37.4617 20.7424C36.9766 20.7424 36.4962 20.6469 36.048 20.4612C35.5998 20.2755 35.1925 20.0034 34.8494 19.6604C34.5064 19.3173 34.2343 18.9101 34.0486 18.4619C33.863 18.0137 33.7674 17.5333 33.7674 17.0482C33.7674 16.563 33.863 16.0826 34.0486 15.6344C34.2343 15.1862 34.5064 14.779 34.8494 14.4359C35.1925 14.0929 35.5998 13.8208 36.048 13.6351C36.4962 13.4495 36.9766 13.3539 37.4617 13.3539C38.4415 13.3539 39.3811 13.7431 40.074 14.4359C40.7668 15.1287 41.156 16.0684 41.156 17.0482C41.156 18.0279 40.7668 18.9676 40.074 19.6604C39.3811 20.3532 38.4415 20.7424 37.4617 20.7424ZM72.8345 16.8372C72.8345 12.8067 69.4448 9.82612 65.5757 9.82612C62.0952 9.82612 58.9968 12.7613 58.9968 17.0468V28.5H62.252V22.3162C63.337 23.3799 64.4629 23.8492 66.071 23.8492C69.7064 23.8492 72.8335 20.811 72.8335 16.8372M69.7518 16.7964C69.7518 17.7761 69.3626 18.7158 68.6698 19.4086C67.977 20.1014 67.0373 20.4906 66.0575 20.4906C65.0777 20.4906 64.1381 20.1014 63.4453 19.4086C62.7525 18.7158 62.3632 17.7761 62.3632 16.7964C62.3632 15.8166 62.7525 14.8769 63.4453 14.1841C64.1381 13.4913 65.0777 13.1021 66.0575 13.1021C67.0373 13.1021 67.977 13.4913 68.6698 14.1841C69.3626 14.8769 69.7518 15.8166 69.7518 16.7964Z" fill="white"/>
<path id="Vector_2" d="M83.3197 9.54389V6.27299C83.7519 6.07098 84.1179 5.75035 84.375 5.34844C84.6321 4.94653 84.7698 4.47985 84.772 4.00274V3.92763C84.772 2.53654 83.6442 1.40884 82.2531 1.40884H82.178C81.51 1.40884 80.8693 1.67421 80.397 2.14657C79.9246 2.61894 79.6592 3.2596 79.6592 3.92763V4.00274C79.6614 4.47985 79.7991 4.94653 80.0562 5.34844C80.3133 5.75035 80.6793 6.07098 81.1115 6.27299V9.54389C79.8692 9.73411 78.6992 10.2492 77.72 11.037L68.7493 4.05004C68.8133 3.81912 68.8467 3.58171 68.8504 3.34337C68.8515 2.78203 68.6861 2.23297 68.3751 1.76564C68.0641 1.29832 67.6215 0.933721 67.1033 0.717973C66.5851 0.502224 66.0145 0.445015 65.4637 0.553583C64.913 0.662151 64.4068 0.931618 64.0092 1.3279C63.6116 1.72418 63.3405 2.22947 63.2301 2.77986C63.1198 3.33025 63.1751 3.901 63.3892 4.41993C63.6032 4.93886 63.9664 5.38265 64.4327 5.69517C64.899 6.00768 65.4475 6.17488 66.0089 6.17561C66.5 6.1733 66.9819 6.0422 67.4065 5.79539L76.2399 12.6692C75.4464 13.868 75.0324 15.278 75.0519 16.7156C75.0714 18.1531 75.5235 19.5514 76.3493 20.7282L73.6627 23.4158C73.4455 23.3463 73.2192 23.3094 72.9912 23.3063C72.5305 23.3067 72.0801 23.4436 71.6972 23.6999C71.3142 23.9561 71.0158 24.3201 70.8396 24.7459C70.6634 25.1716 70.6174 25.6401 70.7074 26.092C70.7974 26.5439 71.0193 26.959 71.3451 27.2848C71.671 27.6106 72.0861 27.8325 72.538 27.9225C72.9899 28.0125 73.4583 27.9665 73.8841 27.7903C74.3099 27.6142 74.6739 27.3158 74.9301 26.9328C75.1863 26.5498 75.3233 26.0995 75.3236 25.6387C75.3206 25.4107 75.2838 25.1844 75.2142 24.9673L77.8721 22.3085C78.7389 22.9757 79.7468 23.4357 80.8188 23.6533C81.8908 23.8708 82.9983 23.8401 84.0566 23.5635C85.1149 23.2869 86.0958 22.7717 86.9242 22.0574C87.7526 21.3431 88.4066 20.4487 88.8359 19.4427C89.2652 18.4367 89.4586 17.3457 89.4012 16.2534C89.3438 15.1611 89.0371 14.0964 88.5046 13.1409C87.9722 12.1854 87.2281 11.3645 86.3294 10.741C85.4306 10.1175 84.4011 9.70803 83.3197 9.54389ZM82.2179 20.3016C81.7267 20.3151 81.2378 20.23 80.78 20.0514C80.3222 19.8727 79.9049 19.6042 79.5527 19.2615C79.2004 18.9188 78.9205 18.5091 78.7293 18.0564C78.5381 17.6037 78.4396 17.1173 78.4396 16.6259C78.4396 16.1345 78.5381 15.6481 78.7293 15.1954C78.9205 14.7427 79.2004 14.3329 79.5527 13.9903C79.9049 13.6476 80.3222 13.379 80.78 13.2004C81.2378 13.0217 81.7267 12.9367 82.2179 12.9502C83.17 12.9835 84.0719 13.385 84.7338 14.0702C85.3957 14.7553 85.7659 15.6705 85.7663 16.6232C85.7668 17.5758 85.3976 18.4914 84.7364 19.1772C84.0752 19.863 83.1736 20.2654 82.2216 20.2997" fill="white"/>
</g>
</svg>
