<svg width="125" height="29" viewBox="0 0 125 29" fill="none" xmlns="http://www.w3.org/2000/svg">
<g id="Logo">
<g id="Group">
<path id="Vector" d="M35.8095 23.2317V4.56506H47.2002V8.17797H40.1249V13.1959H47.2002V16.7586H40.1249V23.2317H35.8095Z" fill="white"/>
<path id="Vector_2" d="M50.0596 23.2315V10.3857H54.1242V13.0452C54.3249 12.1419 54.7765 11.3892 55.4288 10.8875C56.0812 10.3857 56.8338 10.1348 57.6367 10.1348C58.0382 10.1348 58.4396 10.1849 58.6905 10.2351V14.0487C58.1887 13.9986 57.7873 13.9484 57.4862 13.9484C55.2281 13.9484 54.1242 15.4036 54.1242 18.2136V23.1814H50.0596V23.2315Z" fill="white"/>
<path id="Vector_3" d="M65.7172 23.5328C63.8605 23.5328 62.3552 22.8804 61.3014 21.626C60.1974 20.3715 59.6956 18.7156 59.6956 16.7586C59.6956 14.8016 60.2476 13.1958 61.3516 11.8912C62.4555 10.6367 63.9609 9.98438 65.7673 9.98438C66.6706 9.98438 67.4735 10.1851 68.176 10.5865C68.8785 10.988 69.4304 11.4898 69.7817 12.1923V10.3356H73.8462V23.1815H69.7817V21.3751C69.4304 22.0274 68.8785 22.5292 68.1258 22.9306C67.4233 23.3822 66.6204 23.5328 65.7172 23.5328ZM66.8713 20.1708C67.8247 20.1708 68.6276 19.8697 69.1294 19.2174C69.6312 18.565 69.9322 17.7622 69.9322 16.8087C69.9322 15.8553 69.6813 15.0525 69.1294 14.4001C68.5774 13.7478 67.8247 13.4467 66.8713 13.4467C65.9681 13.4467 65.2154 13.7478 64.6634 14.4001C64.1114 15.0023 63.8104 15.8553 63.8104 16.8087C63.8104 17.8123 64.1114 18.6152 64.6634 19.2675C65.2154 19.8697 65.9681 20.1708 66.8713 20.1708Z" fill="white"/>
<path id="Vector_4" d="M77.2075 23.2319V10.386H81.272V12.2427C81.5731 11.5903 82.0247 11.0384 82.677 10.6369C83.3293 10.2355 84.082 10.0348 84.9351 10.0348C86.9423 10.0348 88.2971 10.8377 88.9494 12.3932C89.3007 11.6907 89.8527 11.0886 90.5552 10.6871C91.3079 10.2355 92.1107 10.0348 93.014 10.0348C96.0749 10.0348 97.5803 11.7911 97.5803 15.2534V23.2319H93.4656V16.0061C93.4656 14.3 92.8133 13.4972 91.5588 13.4972C90.1036 13.4972 89.4011 14.5509 89.4011 16.6584V23.2821H85.3867V15.9559C85.3867 14.3 84.7344 13.447 83.4799 13.447C82.7774 13.447 82.2254 13.6979 81.8741 14.1495C81.5229 14.6011 81.3222 15.4541 81.3222 16.6083V23.2319H77.2075Z" fill="white"/>
<path id="Vector_5" d="M113.538 16.1065C113.538 16.6584 113.488 17.2104 113.437 17.9129H103.953C104.004 18.766 104.255 19.4183 104.807 19.8699C105.358 20.3215 106.061 20.5724 106.964 20.5724C108.219 20.5724 109.022 20.171 109.373 19.3681H113.387C113.186 20.6226 112.484 21.6764 111.33 22.4291C110.126 23.2319 108.721 23.6334 107.014 23.6334C104.807 23.6334 103.1 23.0312 101.846 21.8269C100.591 20.6226 99.9391 18.9667 99.9391 16.809C99.9391 14.7015 100.591 13.0455 101.846 11.8412C103.1 10.6369 104.807 10.0348 106.864 10.0348C108.871 10.0348 110.477 10.5868 111.731 11.7409C112.885 12.8448 113.538 14.3 113.538 16.1065ZM103.903 15.3538H109.473C109.473 14.5007 109.222 13.8484 108.771 13.3968C108.319 12.9452 107.667 12.6943 106.764 12.6943C105.91 12.6943 105.208 12.9452 104.706 13.447C104.204 13.9488 103.953 14.6011 103.903 15.3538Z" fill="white"/>
<path id="Vector_6" d="M115.846 23.2315V10.3857H119.91V13.0452C120.111 12.1419 120.562 11.3892 121.215 10.8875C121.867 10.3857 122.62 10.1348 123.423 10.1348C123.824 10.1348 124.226 10.1849 124.476 10.2351V14.0487C123.975 13.9986 123.573 13.9484 123.272 13.9484C121.014 13.9484 119.91 15.4036 119.91 18.2136V23.1814H115.846V23.2315Z" fill="white"/>
</g>
<g id="Group_2">
<g id="Group_3">
<path id="Vector_7" d="M19.2508 0.5V9.83333H9.91741L0.584045 0.5H19.2508ZM0.584045 9.83333H9.91741L19.2508 19.1667H9.91741V28.5L0.584045 19.1667V9.83333Z" fill="white"/>
</g>
</g>
</g>
</svg>
