<svg width="97" height="27" viewBox="0 0 97 27" fill="none" xmlns="http://www.w3.org/2000/svg">
<path id="Logo" d="M64.3872 0.5H60.3122V23.2906C64.0156 23.418 67.7034 23.6048 71.3762 23.8497V19.8345C69.0529 19.6795 66.7234 19.5481 64.3872 19.4394V0.5ZM96.7723 0.502305H92.2958L89.3452 7.34152L86.6943 0.502305H82.285L87.0232 12.723L81.851 24.712C83.2819 24.8515 84.7087 25.0005 86.1342 25.1578L89.1424 18.187L92.1216 25.8713C93.6732 26.0708 95.2207 26.279 96.7655 26.4995L96.7723 26.4968L91.4637 12.8056L96.7723 0.502305ZM46.3238 23.0914L50.399 23.0905V13.82H55.9232V9.80469H50.399V4.55391H57.7V0.502509H46.3238V23.0914ZM31.1062 4.55364H35.3713V23.3302C36.7273 23.2789 38.0861 23.2367 39.4463 23.2011V4.55364H43.7112V0.502305H31.1062V4.55364ZM17.1742 24.4972C20.9302 24.1558 24.7034 23.8745 28.4938 23.6562V19.6405C26.072 19.7805 23.6571 19.9462 21.2493 20.1356V14.0566C22.8292 14.0408 24.9096 13.9926 26.7526 14.0155V9.99993C25.2802 9.99634 22.9137 10.0205 21.2493 10.0418V4.55391H28.4938V0.502509H17.1742V24.4972ZM9.18047 15.2144L3.87292 0.502305H0V26.5C1.35576 26.307 2.71409 26.1222 4.07508 25.9449V11.8075L8.79439 25.3644C10.2787 25.1923 11.7657 25.0293 13.2556 24.876V0.502305H9.18047V15.2144ZM74.7358 24.0915C76.0962 24.1956 77.4545 24.3073 78.8115 24.428V0.502305H74.7358V24.0915Z" fill="white"/>
</svg>
