<svg width="1201" height="578" viewBox="0 0 1201 578" fill="none" xmlns="http://www.w3.org/2000/svg">
<path fill-rule="evenodd" clip-rule="evenodd" d="M0 27.2181C0 12.186 12.186 0 27.2181 0H905.003C920.035 0 932.221 12.186 932.221 27.2181V57.8385V132.688V220.782C932.221 235.814 944.407 248 959.439 248H1173.78C1188.81 248 1201 260.186 1201 275.218V550.782C1201 565.814 1188.81 578 1173.78 578H731.218C716.186 578 704 565.814 704 550.782V285.79C704 270.758 691.814 258.572 676.782 258.572H404.87C389.838 258.572 377.652 246.386 377.652 231.354V159.907C377.652 144.874 365.466 132.688 350.433 132.688H27.2181C12.186 132.688 0 120.502 0 105.47V27.2181Z" fill="#181818"/>
</svg>
