<svg width="388" height="400" viewBox="0 0 388 400" fill="none" xmlns="http://www.w3.org/2000/svg">
<path d="M0 383.4V18.4377C0 9.08958 7.54776 1.49539 16.8957 1.43804L171.447 0.489913C180.543 0.434113 189.007 5.13574 193.765 12.8877L199.907 22.8925C204.501 30.3767 212.562 35.036 221.34 35.2807L293.961 37.3051C301.339 37.5107 308.457 34.571 313.539 29.2189L332.134 9.63792C337.043 4.4686 343.859 1.54159 350.987 1.5416L362 1.54163C376.359 1.54166 388 13.1823 388 27.5416V382.4C388 391.789 380.389 399.4 371 399.4H16C7.16344 399.4 0 392.237 0 383.4Z" fill="#DAFF02"/>
</svg>
