<svg width="351" height="195" viewBox="0 0 351 195" fill="none" xmlns="http://www.w3.org/2000/svg">
<path d="M229.6 194.5L321.187 194.5C337.646 194.5 350.989 181.157 350.989 164.698L350.989 22.9156C350.989 8.98882 342.584 0.128539 328.658 0.0615367C278.011 -0.18212 157.202 0.371123 135.802 0.462338C133.67 0.471432 131.625 1.057 129.822 2.19432C124.504 5.54832 113.114 12.8079 104.075 18.5251C100.28 20.9256 95.871 22.1724 91.3804 22.1319L16.092 21.4532C7.55931 21.3763 0.601119 28.272 0.601119 36.8051L0.601106 179.147C0.601105 187.626 7.47467 194.5 15.9536 194.5L229.6 194.5Z" fill="#181818"/>
</svg>
