<svg width="780" height="401" viewBox="0 0 780 401" fill="none" xmlns="http://www.w3.org/2000/svg">
<path d="M656.119 391.814L769.197 288.974C776.074 282.72 779.994 273.856 779.994 264.561L779.994 20.9013C779.994 8.34937 772.997 0.80429 760.446 0.688536C675.113 -0.0984284 336.898 0.952659 276.019 1.14189L271.275 1.1566C268.092 1.16643 265.332 2.34529 263.005 4.5165C257.181 9.95067 245.862 20.6046 236.468 29.3881C231.635 33.9065 225.254 36.3851 218.638 36.3439L17.1061 35.0865C7.676 35.0276 3.1275e-05 42.6559 3.04505e-05 52.0861L1.48619e-06 383.4C6.65389e-07 392.789 7.61115 400.4 17 400.4L633.916 400.4C642.128 400.4 650.044 397.338 656.119 391.814Z" fill="#DAFF02"/>
</svg>
