<svg width="377" height="400" viewBox="0 0 384 400" fill="none" xmlns="http://www.w3.org/2000/svg">
    <path d="M327.179 382.658L379.235 286.086C381.829 281.274 383.187 275.894 383.187 270.427L383.187 12.0782C383.187 4.6601 379.388 0.382354 371.971 0.259887C328.952 -0.450322 175.128 0.495618 139.098 0.723154C134.363 0.753061 130.136 3.36018 127.941 7.55503C125.861 11.5297 123.143 16.7371 120.427 21.9321C115.906 30.5793 106.904 35.9301 97.1472 35.8059L18.0269 34.799C8.55426 34.6784 0.810609 42.3242 0.810608 51.7976L0.810579 383C0.810578 392.389 8.42172 400 17.8106 400L298.13 400C310.265 400 321.421 393.34 327.179 382.658Z"
          fill="#FF4C00"/>
</svg>
