<svg width="377" height="400" viewBox="0 0 373 400" fill="none" xmlns="http://www.w3.org/2000/svg">
    <path d="M0.810547 384.66V17.3393C0.810547 8.37841 8.04427 1.09813 17.005 1.04065L164.858 0.0922287C173.756 0.03515 182.01 4.72566 186.515 12.3995L192.55 22.6796C196.895 30.081 204.742 34.7267 213.321 34.9768L282.297 36.9873C289.575 37.1994 296.582 34.219 301.477 28.8291L319.201 9.3132C323.925 4.11081 330.627 1.14442 337.654 1.14444L347.883 1.14447C361.65 1.1445 372.811 12.305 372.811 26.0723V383.701C372.811 392.703 365.513 400 356.512 400H16.1508C7.67859 400 0.810547 393.132 0.810547 384.66Z"
          fill="#FF4D00"/>
</svg>
