<svg width="388" height="399" viewBox="0 0 388 399" fill="none" xmlns="http://www.w3.org/2000/svg">
<path d="M0 383V18.0377C0 8.68956 7.54776 1.09536 16.8957 1.03802L171.447 0.0898883C180.543 0.0340883 189.007 4.73571 193.765 12.4877L199.907 22.4925C204.501 29.9766 212.562 34.636 221.34 34.8807L293.961 36.9051C301.339 37.1107 308.457 34.171 313.539 28.8189L332.134 9.23789C337.043 4.06858 343.859 1.14156 350.987 1.14158L362 1.14161C376.359 1.14164 388 12.7822 388 27.1416V382C388 391.389 380.389 399 371 399H16C7.16344 399 0 391.837 0 383Z" fill="#FF4D00"/>
</svg>
