<svg width="780" height="400" viewBox="0 0 780 400" fill="none" xmlns="http://www.w3.org/2000/svg">
    <path d="M656.119 391.414L769.197 288.575C776.074 282.32 779.994 273.456 779.994 264.161L779.994 20.5014C779.994 7.94946 772.997 0.404388 760.446 0.288634C675.113 -0.498331 336.898 0.552757 276.019 0.741991L271.275 0.7567C268.092 0.766526 265.332 1.94539 263.005 4.11659C257.181 9.55077 245.862 20.2047 236.468 28.9882C231.635 33.5066 225.254 35.9852 218.638 35.944L17.1061 34.6866C7.676 34.6277 3.1275e-05 42.256 3.04505e-05 51.6862L1.48619e-06 383C6.65389e-07 392.389 7.61115 400 17 400L633.916 400C642.128 400 650.044 396.938 656.119 391.414Z"
          fill="#FF4D00"/>
</svg>
