<svg width="154" height="47" viewBox="0 0 154 47" fill="none" xmlns="http://www.w3.org/2000/svg">
<path d="M8.33735 2.60367L1.6195 12.4367C0.941223 13.4295 0.578354 14.6039 0.578354 15.8062V39.8545C0.578354 43.6137 2.90815 46.0208 6.6673 46.0343C26.3703 46.1053 87.7698 45.993 99.1936 45.9721L100.36 45.97C100.841 45.9692 101.234 45.8198 101.526 45.436C102.014 44.7931 102.75 43.7062 103.846 42.7823C104.616 42.1328 105.636 41.9133 106.643 41.9167L149.281 42.0625C151.443 42.0699 153.199 40.3192 153.199 38.1569V3.90559C153.199 1.74859 151.451 0 149.294 0H13.2694C11.2963 0 9.45043 0.974429 8.33735 2.60367Z" fill="white"/>
</svg>
