<svg width="224" height="51" viewBox="0 0 224 51" fill="none" xmlns="http://www.w3.org/2000/svg">
    <path d="M12.0308 2.17457L1.71302 13.5687C0.611569 14.7851 0.00159012 16.3675 0.00159012 18.0084V43.2916C0.00159012 47.8846 2.94099 50.9555 7.53391 50.9701C34.8095 51.0571 127.693 50.9289 144.738 50.9054L146.831 50.9025C147.246 50.902 147.629 50.8143 147.933 50.5311C148.725 49.7927 150.053 48.1778 152.229 46.9792C152.991 46.5593 153.865 46.4101 154.735 46.4123L219.664 46.5799C222.057 46.586 224 44.648 224 42.2552V4.32469C224 1.93623 222.064 0 219.675 0H16.9337C15.0656 0 13.2847 0.789902 12.0308 2.17457Z"
          fill="white"/>
</svg>
