<svg width="351" height="316" viewBox="0 0 351 316" fill="none" xmlns="http://www.w3.org/2000/svg">
    <path d="M228.999 316L320.586 316C337.045 316 350.388 302.657 350.388 286.198L350.388 23.3718C350.388 9.44504 341.983 0.584777 328.057 0.51779C277.41 0.274103 156.601 0.827376 135.201 0.918591C133.069 0.927654 131.024 1.51326 129.221 2.65055C123.903 6.00456 112.513 13.2642 103.474 18.9814C99.6786 21.3819 95.2699 22.6287 90.7794 22.5882L15.491 21.9095C6.95825 21.8326 5.56317e-05 28.7283 5.48857e-05 37.2614L3.18597e-05 300.647C3.11185e-05 309.126 6.8736 316 15.3526 316L228.999 316Z"
          fill="#FF4D00"/>
</svg>
