<svg width="18" height="19" viewBox="0 0 18 19" fill="none" xmlns="http://www.w3.org/2000/svg">
    <path fill-rule="evenodd" clip-rule="evenodd"
          d="M5.28937 0.600875C6.24937 0.557375 6.55575 0.546875 9 0.546875C11.4443 0.546875 11.7506 0.557375 12.7106 0.600875C14.1739 0.667625 15.4583 1.02612 16.4895 2.05737C17.5211 3.089 17.8792 4.37375 17.946 5.83625C17.9895 6.79625 18 7.10262 18 9.54688C18 11.9911 17.9895 12.2975 17.946 13.2575C17.8792 14.7207 17.5208 16.0051 16.4895 17.0364C15.4579 18.068 14.1727 18.4261 12.7106 18.4929C11.7506 18.5364 11.4443 18.5469 9 18.5469C6.55575 18.5469 6.24937 18.5364 5.28937 18.4929C3.82612 18.4261 2.54175 18.0676 1.5105 17.0364C0.478875 16.0048 0.12075 14.72 0.054 13.2575C0.0105 12.2975 0 11.9911 0 9.54688C0 7.10262 0.0105 6.79625 0.054 5.83625C0.12075 4.373 0.47925 3.08862 1.5105 2.05737C2.54212 1.02575 3.82687 0.667625 5.28937 0.600875ZM12.6368 2.22088C11.6876 2.17737 11.403 2.16838 9 2.16838C6.597 2.16838 6.31238 2.17775 5.36325 2.22088C4.33913 2.26775 3.3885 2.47288 2.65725 3.20412C1.926 3.93537 1.72088 4.886 1.674 5.91012C1.6305 6.85925 1.6215 7.14388 1.6215 9.54688C1.6215 11.9499 1.63087 12.2345 1.674 13.1836C1.72088 14.2078 1.926 15.1584 2.65725 15.8896C3.3885 16.6209 4.33913 16.826 5.36325 16.8729C6.312 16.9164 6.59663 16.9254 9 16.9254C11.4034 16.9254 11.688 16.916 12.6368 16.8729C13.6609 16.826 14.6115 16.6209 15.3427 15.8896C16.074 15.1584 16.2791 14.2078 16.326 13.1836C16.3695 12.2345 16.3785 11.9499 16.3785 9.54688C16.3785 7.14388 16.3691 6.85925 16.326 5.91012C16.2791 4.886 16.074 3.93537 15.3427 3.20412C14.6115 2.47288 13.6609 2.26775 12.6368 2.22088Z"
          fill="white" fill-opacity="1"/>
    <path fill-rule="evenodd" clip-rule="evenodd"
          d="M4.90909 9.95605C4.90909 7.4709 6.92357 5.45605 9.40909 5.45605C11.8946 5.45605 13.9091 7.47054 13.9091 9.95605C13.9091 12.4416 11.8946 14.4561 9.40909 14.4561C6.92357 14.4561 4.90909 12.4412 4.90909 9.95605ZM6.48796 9.95605C6.48796 11.5692 7.79589 12.8772 9.40909 12.8772C11.0223 12.8772 12.3302 11.5692 12.3302 9.95605C12.3302 8.34286 11.0223 7.03493 9.40909 7.03493C7.79589 7.03493 6.48796 8.34286 6.48796 9.95605Z"
          fill="white" fill-opacity="1"/>
    <circle cx="13.5" cy="5.04685" r="1.22727" fill="white" fill-opacity="1"/>
</svg>
