<svg width="18" height="19" viewBox="0 0 18 19" fill="none" xmlns="http://www.w3.org/2000/svg">
<path fill-rule="evenodd" clip-rule="evenodd" d="M0.75 0.546875H17.25C17.6625 0.546875 18 0.884375 18 1.29688V17.7969C18 18.2094 17.6625 18.5469 17.25 18.5469H0.75C0.3375 18.5469 0 18.2094 0 17.7969V1.29688C0 0.884375 0.3375 0.546875 0.75 0.546875ZM2.6625 15.8844H5.325V7.29688H2.6625V15.8844ZM4.0125 6.13438C3.15 6.13438 2.475 5.45937 2.475 4.59688C2.475 3.73438 3.15 3.05938 4.0125 3.05938C4.875 3.05938 5.55 3.73438 5.55 4.59688C5.55 5.42188 4.875 6.13438 4.0125 6.13438ZM12.675 15.8844H15.3V11.1594C15.3 8.83438 14.8125 7.07188 12.1125 7.07188C10.8375 7.07188 9.9375 7.78438 9.6 8.45938H9.5625V7.29688H7.0125V15.8844H9.675V11.6469C9.675 10.5219 9.9 9.43437 11.2875 9.43437C12.675 9.43437 12.675 10.7094 12.675 11.7219V15.8844Z" fill="white" fill-opacity="1"/>
</svg>
