<svg width="18" height="19" viewBox="0 0 18 19" fill="none" xmlns="http://www.w3.org/2000/svg">
    <path d="M17.25 0.546875H0.75C0.335786 0.546875 0 0.882661 0 1.29688V17.7969C0 18.2111 0.335786 18.5469 0.75 18.5469H9.61436V11.5763H7.26862V8.85977H9.61436V6.85639C9.61436 4.53148 11.0343 3.26552 13.1083 3.26552C14.1018 3.26552 14.9556 3.33948 15.2044 3.37255V5.80222L13.766 5.80287C12.6381 5.80287 12.4197 6.33885 12.4197 7.12537V8.85977H15.1097L14.7595 11.5763H12.4197V18.5469H17.25C17.6642 18.5469 18 18.2111 18 17.7969V1.29688C18 0.882661 17.6642 0.546875 17.25 0.546875Z"
          fill="white" fill-opacity="1"/>
</svg>
