<svg width="17" height="16" viewBox="0 0 17 16" fill="none" xmlns="http://www.w3.org/2000/svg">
    <path fill-rule="evenodd" clip-rule="evenodd"
          d="M17 2.28657C16.3625 2.59584 15.6896 2.78914 14.9812 2.90512C15.6896 2.44121 16.2563 1.70667 16.5042 0.817494C15.8313 1.24275 15.0875 1.55203 14.2729 1.74533C13.6354 1.01079 12.7146 0.546875 11.7229 0.546875C9.81042 0.546875 8.25208 2.24791 8.25208 4.33553C8.25208 4.64481 8.2875 4.91543 8.35833 5.18605C5.48958 5.03141 2.90417 3.52368 1.16875 1.20409C0.885417 1.78399 0.708333 2.40254 0.708333 3.09842C0.708333 4.41285 1.31042 5.57265 2.26667 6.26852C1.7 6.22987 1.16875 6.07523 0.672917 5.80461V5.84327C0.672917 7.69894 1.87708 9.24533 3.47083 9.59327C3.1875 9.67059 2.86875 9.70925 2.55 9.70925C2.3375 9.70925 2.08958 9.67059 1.87708 9.63193C2.3375 11.1397 3.6125 12.2608 5.13542 12.2608C3.93125 13.2659 2.44375 13.8845 0.814583 13.8845C0.53125 13.8845 0.247917 13.8845 0 13.8458C1.55833 14.9283 3.36458 15.5469 5.34792 15.5469C11.7583 15.5469 15.2646 9.74791 15.2646 4.72213C15.2646 4.56749 15.2646 4.37419 15.2646 4.21956C15.9375 3.71698 16.5396 3.05976 17 2.28657Z"
          fill="white"/>
</svg>
