<svg width="70" height="29" viewBox="0 0 70 29" fill="none" xmlns="http://www.w3.org/2000/svg">
<path id="Logo" fill-rule="evenodd" clip-rule="evenodd" d="M69.9934 14.984C69.9934 10.028 67.5928 6.11749 63.0045 6.11749C58.3969 6.11749 55.6091 10.028 55.6091 14.9453C55.6091 20.7724 58.9002 23.715 63.624 23.715C65.9278 23.715 67.6702 23.1923 68.9867 22.4566V18.5848C67.6702 19.243 66.1601 19.6495 64.2435 19.6495C62.3656 19.6495 60.7007 18.9913 60.4877 16.7069H69.9547C69.9547 16.4553 69.9934 15.4486 69.9934 14.984ZM60.4297 13.1449C60.4297 10.9573 61.7655 10.0474 62.9851 10.0474C64.1661 10.0474 65.4245 10.9573 65.4245 13.1449H60.4297ZM48.1362 6.11749C46.2389 6.11749 45.0193 7.00801 44.3417 7.6275L44.09 6.42724H39.8309V29L44.6708 27.974L44.6902 22.4953C45.3871 22.9987 46.4132 23.715 48.1168 23.715C51.5822 23.715 54.7379 20.9272 54.7379 14.7904C54.7185 9.17624 51.5242 6.11749 48.1362 6.11749ZM46.9746 19.4559C45.8324 19.4559 45.1548 19.0494 44.6902 18.5461L44.6708 11.3638C45.1742 10.8024 45.8711 10.4152 46.9746 10.4152C48.7364 10.4152 49.956 12.3899 49.956 14.9259C49.956 17.52 48.7557 19.4559 46.9746 19.4559ZM33.1711 4.9753L38.0304 3.92991V0L33.1711 1.02603V4.9753ZM33.1711 6.4466H38.0304V23.3858H33.1711V6.4466ZM27.9633 7.87917L27.6536 6.4466H23.4719V23.3858H28.3118V11.9059C29.454 10.4152 31.39 10.6862 31.9902 10.8992V6.4466C31.3706 6.21429 29.1056 5.78838 27.9633 7.87917ZM18.2834 2.24566L13.5597 3.25234L13.5403 18.759C13.5403 21.6242 15.6892 23.7343 18.5545 23.7343C20.142 23.7343 21.3036 23.4439 21.9424 23.0955V19.1656C21.3229 19.4172 18.2641 20.3077 18.2641 17.4426V10.5701H21.9424V6.4466H18.2641L18.2834 2.24566ZM5.19624 11.3638C5.19624 10.6088 5.81575 10.3184 6.84182 10.3184C8.31316 10.3184 10.1717 10.7637 11.643 11.5574V7.00801C10.0362 6.36916 8.44868 6.11749 6.84182 6.11749C2.91179 6.11749 0.298218 8.16956 0.298218 11.5961C0.298218 16.9393 7.65493 16.0875 7.65493 18.3912C7.65493 19.2817 6.88054 19.5721 5.79639 19.5721C4.18953 19.5721 2.1374 18.9139 0.511175 18.0234V22.6308C2.31163 23.4052 4.13145 23.7343 5.79639 23.7343C9.82322 23.7343 12.5917 21.7403 12.5917 18.275C12.5723 12.506 5.19624 13.532 5.19624 11.3638Z" fill="white"/>
</svg>
