<svg width="110" height="27" viewBox="0 0 110 27" fill="none" xmlns="http://www.w3.org/2000/svg">
<g id="Logo">
<g id="Group">
<g id="Group_2">
<path id="Vector" fill-rule="evenodd" clip-rule="evenodd" d="M0.362946 6.16346L12.2347 0L24.234 6.16346L12.2347 12.3424L0.362946 6.16346ZM71.6325 9.15634V9.00747C71.6325 6.97931 72.8256 6.32887 74.835 6.47293V2.76451C70.021 2.47104 67.7394 4.88285 67.7394 9.00747V9.15634H65.5624V12.8653H67.7394V24.092H71.6325V12.8653H76.1119V24.092H80.005V12.8653H83.2075V9.15634H80.005V9.00747C80.005 6.97931 81.1772 6.32887 83.2075 6.47293V2.76451C78.3935 2.47104 76.1119 4.88285 76.1119 9.00747V9.15634H71.6325ZM44.4212 13.2175C45.6559 12.2357 46.4093 10.8323 46.4093 9.02881C46.4093 5.53329 43.5626 3.14336 39.9833 3.14336H31.6733V24.0493H40.653C44.316 24.0493 47.2465 21.5788 47.2465 17.9984C47.2049 15.8374 46.1164 14.1827 44.4212 13.2175ZM40.0041 7.01719C41.344 7.01719 42.2649 8.00379 42.2649 9.32229C42.2649 10.645 41.3018 11.6268 40.0041 11.6268H35.839V7.01719H40.0041ZM40.6322 20.2181H35.839V15.2926H40.6322C42.0558 15.2926 43.0813 16.3384 43.0813 17.7417C43.0813 19.167 42.0558 20.2181 40.6322 20.2181ZM59.3872 9.135V17.198C59.3872 19.7966 57.9641 20.9064 56.0592 20.9064C54.3005 20.9064 53.0658 19.8606 53.0658 17.8271V9.135H49.1722V18.3079C49.1722 22.2884 51.6635 24.4921 54.8869 24.4921C56.9172 24.4921 58.487 23.7345 59.3664 22.3952V24.0706H63.2594V9.135H59.3872ZM99.3459 18.1846H87.9597C88.5247 20.1541 90.157 20.9918 92.1878 20.9918C93.7155 20.9918 94.9299 20.3617 95.5787 19.5031L98.7184 21.2853C97.3161 23.3177 95.0553 24.4921 92.1456 24.4921C87.0803 24.4921 83.8777 21.0558 83.8777 16.5951C83.8777 12.129 87.1011 8.69212 91.8527 8.69212C96.3114 8.69212 99.4931 12.193 99.4931 16.5951C99.4931 17.1767 99.4302 17.6836 99.3459 18.1846ZM91.8527 12.193C89.76 12.193 88.3358 13.3028 87.8962 15.2072H95.5995C95.1177 13.0521 93.4855 12.193 91.8527 12.193ZM105.124 11.7122V9.135H101.23V24.0706H105.124V16.9259C105.124 13.7825 107.678 12.8866 109.708 13.1369V8.84206C107.803 8.84206 105.898 9.67979 105.124 11.7122ZM12.2347 22.9127L4.1354 18.5106L0.362946 20.5543L12.2347 27L24.234 20.5543L20.4189 18.5106L12.2347 22.9127ZM4.1354 11.5687L12.2347 15.5594L20.4189 11.5687L24.234 13.4309L12.2347 19.2843L0.362946 13.4309L4.1354 11.5687Z" fill="white"/>
</g>
</g>
</g>
</svg>
