<svg width="133" height="27" viewBox="0 0 133 27" fill="none" xmlns="http://www.w3.org/2000/svg">
<g id="Logo">
<path id="Vector" d="M16.285 5.39028L8.62344 10.2806L16.285 15.1708L8.62344 20.0611L0.961914 15.1301L8.62344 10.2398L0.961914 5.39028L8.62344 0.5L16.285 5.39028ZM8.58269 21.6097L16.2442 16.7194L23.9057 21.6097L16.2442 26.5L8.58269 21.6097ZM16.285 15.1301L23.9465 10.2398L16.285 5.39028L23.9057 0.5L31.5673 5.39028L23.9057 10.2806L31.5673 15.1708L23.9057 20.0611L16.285 15.1301Z" fill="white"/>
<path id="Vector_2" d="M37.5569 5.39075H43.7513C47.7043 5.39075 50.9646 7.67288 50.9646 12.8892V13.9895C50.9646 19.2465 47.9081 21.6102 43.8736 21.6102H37.5569V5.39075ZM41.0209 8.32491V18.6353H43.6698C45.9112 18.6353 47.4191 17.1682 47.4191 13.908V13.0522C47.4191 9.792 45.8297 8.32491 43.5475 8.32491H41.0209ZM52.7984 8.48792H55.5696L56.0179 11.5444C56.5477 9.46598 57.8925 8.36567 60.3377 8.36567H61.1935V11.8704H59.7672C56.9552 11.8704 56.2624 12.8484 56.2624 15.6196V21.6509H52.8392V8.48792H52.7984ZM61.8863 15.3343V14.9675C61.8863 10.5663 64.6983 8.1619 68.529 8.1619C72.4413 8.1619 75.1717 10.5663 75.1717 14.9675V15.3343C75.1717 19.6541 72.5228 21.977 68.529 21.977C64.2907 21.9362 61.8863 19.6541 61.8863 15.3343ZM71.667 15.2936V14.9675C71.667 12.5224 70.4444 11.0553 68.4883 11.0553C66.5729 11.0553 65.3095 12.4002 65.3095 14.9675V15.2936C65.3095 17.6572 66.5321 19.002 68.4883 19.002C70.4444 18.9613 71.667 17.6572 71.667 15.2936ZM76.9649 8.48792H79.8175L80.1436 10.9738C80.8364 9.30297 82.3035 8.1619 84.4634 8.1619C87.8051 8.1619 90.0057 10.5663 90.0057 15.0083V15.3751C90.0057 19.6948 87.5606 21.977 84.4634 21.977C82.385 21.977 80.9586 21.0396 80.2658 19.5318V26.1744H76.9241L76.9649 8.48792ZM86.5418 15.2936V15.0083C86.5418 12.4002 85.1969 11.0961 83.4038 11.0961C81.4884 11.0961 80.2251 12.5632 80.2251 15.0083V15.2528C80.2251 17.5757 81.4477 19.0428 83.363 19.0428C85.3192 19.002 86.5418 17.7387 86.5418 15.2936ZM95.0591 19.2058L94.7738 21.6102H91.8396V4.08667H95.1814V10.8108C95.9149 9.09921 97.382 8.1619 99.4604 8.1619C102.598 8.20266 104.921 10.3625 104.921 14.723V15.1306C104.921 19.4911 102.721 21.977 99.3789 21.977C97.1782 21.9362 95.7519 20.9174 95.0591 19.2058ZM101.417 15.1306V14.8045C101.417 12.4002 100.112 11.0553 98.2786 11.0553C96.4039 11.0553 95.0998 12.5632 95.0998 14.8453V15.1306C95.0998 17.5757 96.3632 19.002 98.2378 19.002C100.235 19.002 101.417 17.7387 101.417 15.1306ZM106.388 15.3343V14.9675C106.388 10.5663 109.2 8.1619 113.031 8.1619C116.943 8.1619 119.674 10.5663 119.674 14.9675V15.3343C119.674 19.6541 116.984 21.977 113.031 21.977C108.793 21.9362 106.388 19.6541 106.388 15.3343ZM116.21 15.2936V14.9675C116.21 12.5224 114.987 11.0553 113.031 11.0553C111.116 11.0553 109.852 12.4002 109.852 14.9675V15.2936C109.852 17.6572 111.075 19.002 113.031 19.002C114.987 18.9613 116.21 17.6572 116.21 15.2936ZM124.157 14.8045L119.552 8.48792H123.505L126.153 12.4409L128.843 8.48792H132.755L128.069 14.7638L133 21.6102H129.128L126.113 17.2497L123.179 21.6102H119.144L124.157 14.8045Z" fill="white"/>
</g>
</svg>
