<svg width="120" height="25" viewBox="0 0 120 25" fill="none" xmlns="http://www.w3.org/2000/svg">
<path d="M99.3903 5L98.3596 0H114.39V5H99.3903ZM99.3903 5V15H101.89L106.89 10H114.39V5H119.39V25H114.39V15H109.39L104.39 20H99.3903V25H94.3903V0H99.3903V5Z" fill="#FF4D00"/>
<path d="M86.2538 0H91.2538V25H86.2538V12.5H81.2538L76.2538 17.5H71.2538V25H66.2538V0H71.2538V12.5H73.7538L78.7538 7.5H86.2538V0Z" fill="#FF4D00"/>
<path d="M43.1162 5L41.7218 0H58.1162V5H43.1162ZM43.1162 5V15H45.6162L50.6162 10H58.1162V5H63.1162V25H58.1162V15H53.1162L48.1162 20H43.1162V25H38.1162V0H43.1162V5Z" fill="#FF4D00"/>
<path d="M27.5 0L35 7.5V25H30V10L25 5H17.5L20 7.5V25H15V10L10 5H5V25H0V0H5H12.5L17.5 5V0H27.5Z" fill="#FF4D00"/>
</svg>
