<svg width="239" height="51" viewBox="0 0 239 51" fill="none" xmlns="http://www.w3.org/2000/svg">
<path id="Vector 33" d="M12.9874 2.01841L1.8592 13.5362C0.667686 14.7694 0.0016966 16.4172 0.0016966 18.132V43.1132C0.0016966 47.7947 3.03175 50.9546 7.71322 50.9691C36.3927 51.058 136.164 50.929 154.427 50.9054L156.721 50.9025C157.113 50.902 157.493 50.8273 157.79 50.573C158.645 49.8422 160.11 48.1393 162.555 46.9117C163.288 46.5438 164.111 46.41 164.931 46.4119L234.665 46.5806C237.057 46.5864 239 44.6484 239 42.2559V4.32469C239 1.93623 237.064 0 234.675 0H17.7441C15.9504 0 14.2337 0.728464 12.9874 2.01841Z" fill="white"/>
</svg>
