<svg width="153" height="47" viewBox="0 0 153 47" fill="none" xmlns="http://www.w3.org/2000/svg">
<path d="M7.76008 2.60367L1.04223 12.4367C0.363953 13.4295 0.00108343 14.6039 0.00108343 15.8062V39.8545C0.00108343 43.6137 2.33088 46.0208 6.09003 46.0343C25.793 46.1053 87.1925 45.993 98.6163 45.9721L99.7822 45.97C100.264 45.9692 100.657 45.8198 100.948 45.436C101.437 44.7931 102.173 43.7062 103.268 42.7823C104.038 42.1328 105.059 41.9133 106.066 41.9167L148.703 42.0625C150.865 42.0699 152.622 40.3192 152.622 38.1569V3.90559C152.622 1.74859 150.874 0 148.717 0H12.6922C10.719 0 8.87316 0.974429 7.76008 2.60367Z" fill="white"/>
</svg>
