<svg width="321" height="359" viewBox="0 0 321 359" fill="none" xmlns="http://www.w3.org/2000/svg">
<path d="M306.704 0.695566L14.3541 0.695557C6.83354 0.695557 0.736888 6.81585 0.73677 14.3365C0.734374 167.442 0.693128 286.362 0.681343 317.329C0.679321 322.644 1.28278 328.266 5.60244 331.363C7.51437 332.733 10.1475 334.086 13.7627 335.121C17.5408 336.204 21.3409 337.887 22.886 341.501C24.0872 344.311 24.946 347.535 26.0244 350.843C27.7217 356.049 32.8163 359.001 38.2921 358.99C65.0379 358.938 111.918 358.699 146.342 358.699C159.295 358.699 168.438 325.503 177.948 325.503C217.646 325.503 260.74 325.603 304.609 325.624C313.286 325.628 320.322 318.593 320.322 309.916V14.3128C320.322 6.79223 314.225 0.695566 306.704 0.695566Z" fill="#0038FF"/>
</svg>
