<svg width="351" height="247" viewBox="0 0 351 247" fill="none" xmlns="http://www.w3.org/2000/svg">
    <path d="M228.999 247L320.586 247C337.045 247 350.388 233.657 350.388 217.198L350.388 23.372C350.388 9.44522 341.983 0.58496 328.057 0.517958C277.41 0.274286 156.601 0.827543 135.201 0.918759C133.069 0.927853 131.024 1.51342 129.221 2.65074C123.903 6.00477 112.513 13.2644 103.474 18.9817C99.6786 21.3822 95.2699 22.629 90.7793 22.5885L15.491 21.9097C6.95824 21.8328 4.95995e-05 28.7286 4.88535e-05 37.2616L3.18597e-05 231.647C3.11185e-05 240.126 6.8736 247 15.3525 247L228.999 247Z"
          fill="#DAFF02"/>
</svg>
