<svg width="377" height="401" viewBox="0 0 383 401" fill="none" xmlns="http://www.w3.org/2000/svg">
    <path d="M326.368 382.99L378.425 286.418C381.018 281.606 382.376 276.226 382.376 270.76L382.376 12.4102C382.376 4.99213 378.578 0.714386 371.161 0.591918C328.141 -0.118291 174.318 0.827649 138.287 1.05518C133.553 1.08509 129.326 3.69221 127.131 7.88706C125.05 11.8617 122.333 17.0691 119.617 22.2641C115.096 30.9114 106.094 36.2622 96.3366 36.138L17.2164 35.131C7.74371 35.0105 6.17866e-05 42.6562 6.09584e-05 52.1297L3.20038e-05 383.332C3.1183e-05 392.721 7.61118 400.332 17 400.332L297.32 400.332C309.455 400.332 320.61 393.672 326.368 382.99Z"
          fill="#DAFF02"/>
</svg>
