<svg width="372" height="383" viewBox="0 0 372 383" fill="none" xmlns="http://www.w3.org/2000/svg">
<path d="M0 367.136V17.2236C0 8.26091 7.23651 0.979882 16.199 0.9249L164.377 0.0158691C173.098 -0.0376299 181.213 4.4701 185.775 11.9024L191.663 21.4947C196.068 28.6702 203.797 33.1374 212.213 33.372L281.839 35.3129C288.913 35.5101 295.737 32.6915 300.61 27.5601L318.438 8.78664C323.144 3.83049 329.679 1.02418 336.514 1.02419L347.072 1.02422C360.839 1.02425 372 12.1848 372 25.952V366.177C372 375.179 364.703 382.476 355.701 382.476H15.3402C6.86804 382.476 0 375.608 0 367.136Z" fill="#DAFF02"/>
</svg>
