<svg width="144" height="48" viewBox="0 0 144 48" fill="none" xmlns="http://www.w3.org/2000/svg">
    <path d="M10.8138 3.02693L2.73656 13.1115C1.88789 14.1711 1.42546 15.4882 1.42546 16.8457V40.2035C1.42546 44.1901 3.9337 46.8067 7.9203 46.8201C30.2946 46.8953 103.529 46.7811 117.041 46.76L118.605 46.7575C119.025 46.7569 119.382 46.6509 119.666 46.3421C120.277 45.6763 121.256 44.3817 122.796 43.3602C123.536 42.8689 124.433 42.7032 125.321 42.7108L139.27 42.8301C141.44 42.8486 143.209 41.0947 143.209 38.9246V4.69343C143.209 2.53644 141.461 0.787844 139.304 0.787844L15.476 0.787842C13.6626 0.787842 11.9475 1.61159 10.8138 3.02693Z"
          stroke="#110F10" stroke-width="0.90309"/>
</svg>
