<svg width="224" height="52" viewBox="0 0 224 52" fill="none" xmlns="http://www.w3.org/2000/svg">
    <path d="M12.0308 2.57448L1.71302 13.9687C0.611569 15.185 0.00159012 16.7674 0.00159012 18.4083V43.6915C0.00159012 48.2845 2.94099 51.3554 7.53391 51.37C34.8095 51.457 127.693 51.3288 144.738 51.3053L146.831 51.3024C147.246 51.3019 147.629 51.2142 147.933 50.931C148.725 50.1926 150.053 48.5777 152.229 47.3791C152.991 46.9592 153.865 46.81 154.735 46.8122L219.664 46.9798C222.057 46.986 224 45.0479 224 42.6551V4.7246C224 2.33613 222.064 0.399902 219.675 0.399902H16.9337C15.0656 0.399902 13.2847 1.1898 12.0308 2.57448Z"
          fill="#FF4D00"/>
</svg>
