<svg width="154" height="47" viewBox="0 0 154 47" fill="none" xmlns="http://www.w3.org/2000/svg">
<path d="M8.33735 3.39151L1.6195 13.2245C0.941223 14.2173 0.578354 15.3917 0.578354 16.5941V40.6423C0.578354 44.4015 2.90815 46.8086 6.6673 46.8222C26.3703 46.8932 87.7698 46.7809 99.1936 46.76L100.36 46.7579C100.841 46.757 101.234 46.6077 101.526 46.2239C102.014 45.5809 102.75 44.494 103.846 43.5701C104.616 42.9206 105.636 42.7011 106.643 42.7045L149.281 42.8504C151.443 42.8577 153.199 41.107 153.199 38.9448V4.69343C153.199 2.53643 151.451 0.787842 149.294 0.787842H13.2694C11.2963 0.787842 9.45043 1.76227 8.33735 3.39151Z" fill="#FF4D00"/>
</svg>
