<svg width="297" height="210" viewBox="0 0 297 210" fill="none" xmlns="http://www.w3.org/2000/svg">
    <path d="M1 192.395V19.1635C1 9.44884 8.8536 1.56212 18.5682 1.52126L130.366 1.05101C138.079 1.01857 145.438 4.28871 150.583 10.0355L150.751 10.2237C155.75 15.8073 162.846 19.0603 170.339 19.2035L224.308 20.235C230.154 20.3468 235.879 18.5565 240.619 15.1337L252.298 6.7014C256.895 3.38178 262.422 1.5951 268.093 1.59511L269.018 1.59511C283.92 1.59514 296 13.6756 296 28.5776V191.358C296 201.101 288.101 209 278.358 209H17.6046C8.43413 209 1 201.566 1 192.395Z"
          fill="#110F10" stroke="white" stroke-opacity="0.3" stroke-width="0.7782"/>
</svg>
