<svg width="296" height="250" viewBox="0 0 296 209" fill="none" xmlns="http://www.w3.org/2000/svg">
<path d="M0.5 191.892V18.6601C0.5 8.94542 8.3536 1.0587 18.0682 1.01784L129.866 0.547593C137.579 0.515149 144.938 3.78529 150.083 9.53206L150.251 9.72031C155.25 15.3039 162.346 18.5569 169.839 18.7001L223.808 19.7316C229.654 19.8434 235.379 18.0531 240.119 14.6303L251.798 6.19798C256.395 2.87836 261.922 1.09168 267.593 1.09169L268.518 1.09169C283.42 1.09172 295.5 13.1722 295.5 28.0742V190.854C295.5 200.598 287.601 208.497 277.858 208.497H17.1046C7.93413 208.497 0.5 201.062 0.5 191.892Z" fill="#110F10" stroke="white" stroke-opacity="0.3" stroke-width="0.7782"/>
</svg>
