<svg width="354" height="377" viewBox="0 0 354 377" fill="none" xmlns="http://www.w3.org/2000/svg">
<path fill-rule="evenodd" clip-rule="evenodd" d="M5.946 57.2782C2.19527 61.0289 0.0881348 66.116 0.0881348 71.4203V324.42C0.0881348 335.466 9.04246 344.42 20.0882 344.42H67.4302C74.6315 344.42 81.2768 348.292 84.8285 354.556L91.7879 366.831C95.3396 373.096 101.985 376.967 109.186 376.967H243.797C250.227 376.967 256.265 373.876 260.023 368.66L271.503 352.728C275.262 347.511 281.3 344.42 287.73 344.42H333.088C344.134 344.42 353.088 335.466 353.088 324.42V64.9837C353.088 59.5567 350.883 54.3627 346.978 50.5937L301.357 6.558C297.628 2.95922 292.649 0.947998 287.467 0.947998H70.5604C65.2561 0.947998 60.169 3.05513 56.4183 6.80586L5.946 57.2782Z" fill="#181818"/>
</svg>
