<svg width="1006" height="563" viewBox="0 0 1006 563" fill="none" xmlns="http://www.w3.org/2000/svg">
    <path fill-rule="evenodd" clip-rule="evenodd"
          d="M5.12816 56.4172C1.8266 60.0889 0 64.8521 0 69.7899V273.152C0 284.198 8.95429 293.152 20 293.152H37.2654H329.202C335.338 293.152 341.134 295.969 344.926 300.793L358.471 318.024C362.263 322.848 368.059 325.664 374.195 325.664H597.471C604.251 325.664 610.57 322.229 614.256 316.54L623.497 302.277C627.184 296.587 633.502 293.152 640.282 293.152H968.685H986C997.046 293.152 1006 284.198 1006 273.152V63.1526C1006 58.2148 1004.17 53.4516 1000.87 49.7799L962.069 6.62733C958.276 2.40905 952.87 0 947.198 0H64.7708C59.0979 0 53.692 2.40906 49.8989 6.62733L5.12816 56.4172Z"
          fill="#181818"/>
    <path d="M640.282 293.152C633.502 293.152 627.184 296.587 623.497 302.277L614.256 316.54C610.57 322.229 604.251 325.664 597.471 325.664H374.195C368.059 325.664 362.263 322.848 358.471 318.024L344.926 300.793C341.134 295.969 335.338 293.152 329.202 293.152H37.2654V352.335C37.2654 359.003 40.5882 365.232 46.126 368.946L64.7929 381.464C70.3307 385.178 73.6536 391.407 73.6536 398.075V513.992C73.6536 525.037 82.6079 533.992 93.6536 533.992H319.437C324.532 533.992 329.435 535.936 333.145 539.428L352.413 557.564C356.123 561.056 361.026 563 366.121 563H910.433C916.106 563 921.512 560.591 925.305 556.373L963.556 513.833C966.858 510.161 968.685 505.398 968.685 500.46V293.152H640.282Z"
          fill="#0A0909"/>
</svg>
