<svg width="353" height="481" viewBox="0 0 353 481" fill="none" xmlns="http://www.w3.org/2000/svg">
    <path d="M312.104 0.281982C307.19 0.281982 302.449 2.09077 298.783 5.3633L273.713 27.748C270.048 31.0205 265.306 32.8293 260.392 32.8293H97.6001C91.8297 32.8293 86.3405 30.337 82.5426 25.9925L66.0433 7.11877C62.2454 2.77433 56.7562 0.281982 50.9857 0.281982H20.0881C9.04244 0.281982 0.0881348 9.23631 0.0881348 20.282V58.9151C0.0881348 65.9246 3.75772 72.4226 9.76033 76.0422L30.9491 88.8193C36.9401 92.4319 40.608 98.9124 40.6213 105.908L41.2399 431.422C41.2609 442.453 50.209 451.384 61.2399 451.384H116.417C121.148 451.384 125.726 453.061 129.338 456.118L152.464 475.69C156.075 478.747 160.653 480.424 165.384 480.424H298.318C304.318 480.424 310 477.731 313.799 473.087L348.208 431.018C351.131 427.446 352.727 422.972 352.727 418.356V20.282C352.727 9.23629 343.773 0.281982 332.728 0.281982H312.104Z"
          fill="#0A0909"/>
</svg>
