<svg width="1202" height="565" viewBox="0 0 1202 565" fill="none" xmlns="http://www.w3.org/2000/svg">
    <path fill-rule="evenodd" clip-rule="evenodd"
          d="M6.35786 57.2779C2.60714 61.0287 0.5 66.1157 0.5 71.4201V274.42C0.5 285.466 9.4543 294.42 20.5 294.42H59.9883H409.746C415.516 294.42 421.005 296.912 424.803 301.257L441.302 320.13C445.1 324.475 450.59 326.967 456.36 326.967H708.542C714.971 326.967 721.009 323.876 724.768 318.659L736.248 302.728C740.007 297.511 746.044 294.42 752.474 294.42H1146.96H1181.5C1192.55 294.42 1201.5 285.466 1201.5 274.42V64.7755C1201.5 59.4712 1199.39 54.3841 1195.64 50.6334L1151.81 6.80562C1148.06 3.05489 1142.98 0.947754 1137.67 0.947754H70.9723C65.668 0.947754 60.5809 3.05489 56.8302 6.80561L6.35786 57.2779Z"
          fill="#181818"/>
    <path d="M752.474 294.42C746.044 294.42 740.007 297.511 736.248 302.728L724.768 318.659C721.009 323.876 714.971 326.967 708.542 326.967H456.36C450.59 326.967 445.1 324.475 441.302 320.13L424.803 301.257C421.005 296.912 415.516 294.42 409.746 294.42H59.9883V353.053C59.9883 360.063 63.6579 366.561 69.6605 370.18L90.8278 382.944C96.8304 386.564 100.5 393.062 100.5 400.071V515.522C100.5 526.568 109.454 535.522 120.5 535.522H405.639C410.371 535.522 414.948 537.199 418.56 540.256L441.686 559.828C445.297 562.885 449.875 564.562 454.607 564.562H1083.74C1089.05 564.562 1094.13 562.455 1097.88 558.704L1141.1 515.489C1144.85 511.739 1146.96 506.652 1146.96 501.347V294.42H752.474Z"
          fill="#0A0909"/>
</svg>
