<svg width="242" height="51" viewBox="0 0 242 51" fill="none" xmlns="http://www.w3.org/2000/svg">
    <path d="M13.1793 1.98903L1.88797 13.5308C0.678807 14.7668 0.0017179 16.4271 0.0017179 18.1562V43.0797C0.0017179 47.7778 3.04971 50.9546 7.74777 50.9691C36.7017 51.0584 137.838 50.9292 156.359 50.9056L158.699 50.9026C159.086 50.9021 159.466 50.8297 159.762 50.5807C160.629 49.8517 162.121 48.1325 164.62 46.8997C165.347 46.5411 166.161 46.4101 166.971 46.4121L237.665 46.5809C240.057 46.5866 242 44.6487 242 42.2562V4.32488C242 1.93641 240.064 0.000183105 237.675 0.000183105H17.9073C16.1279 0.000183105 14.4236 0.717106 13.1793 1.98903Z"
          fill="white"/>
</svg>
