<svg width="393" height="321" viewBox="0 0 393 321" fill="none" xmlns="http://www.w3.org/2000/svg">
<path d="M0 30C0 18.9543 8.9543 10 20 10H340.39C343.644 10 346.571 8.02031 347.782 5C348.993 1.97969 351.92 0 355.174 0H367.932C371.291 0 374.344 1.95138 375.755 5C377.166 8.04862 380.219 10 383.579 10H383.891C388.922 10 393 14.0783 393 19.1091V251.106C393 256.561 390.772 261.779 386.832 265.551L366.713 284.817C364.277 287.149 362.471 290.06 361.462 293.278L357.395 306.244C354.78 314.584 347.052 320.26 338.312 320.26H54.6883C45.9481 320.26 38.2201 314.584 35.6047 306.244L31.5383 293.278C30.5292 290.06 28.7228 287.149 26.2871 284.817L6.16762 265.551C2.22791 261.779 0 256.561 0 251.106V30Z" fill="#181818"/>
</svg>
