<svg width="154" height="47" viewBox="0 0 154 47" fill="none" xmlns="http://www.w3.org/2000/svg">
<path d="M8.36311 2.60357L1.64526 12.4366C0.96698 13.4294 0.604111 14.6038 0.604111 15.8062V39.8544C0.604111 43.6136 2.93391 46.0207 6.69305 46.0342C26.3961 46.1052 87.7955 45.9929 99.2193 45.972L100.385 45.9699C100.867 45.9691 101.26 45.8198 101.551 45.4359C102.04 44.793 102.776 43.7061 103.871 42.7822C104.641 42.1327 105.662 41.9132 106.669 41.9166L149.306 42.0624C151.468 42.0698 153.225 40.3191 153.225 38.1569V3.9055C153.225 1.7485 151.477 -9.15527e-05 149.32 -9.15527e-05H13.2952C11.322 -9.15527e-05 9.47619 0.974337 8.36311 2.60357Z" fill="white"/>
</svg>
