<svg width="240" height="52" viewBox="0 0 240 52" fill="none" xmlns="http://www.w3.org/2000/svg">
    <path d="M13.8677 2.96616L2.73957 14.4839C1.54806 15.7172 0.882068 17.3649 0.882068 19.0798V44.0609C0.882068 48.7424 3.91212 51.9024 8.59359 51.9169C37.2731 52.0058 137.045 51.8768 155.307 51.8531L157.602 51.8502C157.993 51.8497 158.373 51.7751 158.671 51.5208C159.526 50.7899 160.99 49.0871 163.435 47.8595C164.168 47.4915 164.991 47.3577 165.811 47.3597L235.545 47.5283C237.938 47.5341 239.88 45.5962 239.88 43.2037V5.27245C239.88 2.88399 237.944 0.947754 235.556 0.947754H18.6245C16.8308 0.947754 15.114 1.67622 13.8677 2.96616Z"
          fill="white"/>
</svg>
