<svg width="771" height="564" viewBox="0 0 771 564" fill="none" xmlns="http://www.w3.org/2000/svg">
    <path fill-rule="evenodd" clip-rule="evenodd"
          d="M6.18208 56.3302C2.43136 60.0809 0.324219 65.168 0.324219 70.4723V263.472C0.324219 274.518 9.27852 283.472 20.3242 283.472H25.8125H246.145C251.58 283.472 256.781 285.684 260.551 289.599L277.203 306.892C280.973 310.807 286.174 313.02 291.61 313.02H485.946C492.049 313.02 497.817 310.233 501.611 305.453L513.053 291.038C516.847 286.258 522.616 283.472 528.718 283.472H743.78H750.324C761.37 283.472 770.324 274.518 770.324 263.472V63.8277C770.324 58.5234 768.217 53.4363 764.466 49.6856L720.639 5.85787C716.888 2.10714 711.801 0 706.496 0H70.7965C65.4922 0 60.4051 2.10713 56.6544 5.85786L6.18208 56.3302Z"
          fill="#181818"/>
    <path d="M528.718 283.472C522.616 283.472 516.847 286.258 513.053 291.038L501.611 305.453C497.817 310.233 492.049 313.02 485.946 313.02H291.61C286.174 313.02 280.973 310.807 277.203 306.892L260.551 289.599C256.781 285.684 251.58 283.472 246.145 283.472H25.8125V352.105C25.8125 359.115 29.4821 365.613 35.4847 369.232L56.652 381.997C62.6546 385.616 66.3242 392.114 66.3242 399.124V514.574C66.3242 525.62 75.2785 534.574 86.3242 534.574H191.464C196.195 534.574 200.773 536.251 204.384 539.308L227.51 558.88C231.122 561.937 235.7 563.614 240.431 563.614H680.566C685.87 563.614 690.957 561.507 694.708 557.756L737.922 514.542C741.673 510.791 743.78 505.704 743.78 500.4V283.472H528.718Z"
          fill="#0A0909"/>
</svg>
