<svg width="154" height="47" viewBox="0 0 154 47" fill="none" xmlns="http://www.w3.org/2000/svg">
<path d="M8.44904 2.60659L1.7312 12.4396C1.05292 13.4324 0.690048 14.6068 0.690048 15.8092V39.8574C0.690048 43.6166 3.01985 46.0237 6.77899 46.0373C26.482 46.1083 87.8815 45.996 99.3052 45.9751L100.471 45.9729C100.953 45.9721 101.346 45.8228 101.637 45.439C102.126 44.796 102.862 43.7091 103.957 42.7852C104.727 42.1357 105.747 41.9162 106.755 41.9196L149.392 42.0654C151.554 42.0728 153.311 40.3221 153.311 38.1599V3.90852C153.311 1.75152 151.563 0.00292969 149.406 0.00292969H13.3811C11.408 0.00292969 9.56213 0.977358 8.44904 2.60659Z" fill="white"/>
</svg>
