<svg width="198" height="53" viewBox="0 0 198 53" fill="none" xmlns="http://www.w3.org/2000/svg">
<path d="M14.5219 3.33736L2.93882 14.9214C1.69853 16.1618 1.00176 17.844 1.00176 19.5982V44.421C1.00176 49.1478 4.08162 52.3541 8.80838 52.3685C38.2557 52.4584 141.871 52.329 160.817 52.3053L163.226 52.3023C163.605 52.3019 163.982 52.233 164.276 51.9932C165.164 51.269 166.699 49.5263 169.286 48.2854C170.012 47.9375 170.819 47.8117 171.624 47.8172L192.646 47.9611C195.046 47.9776 197 46.0366 197 43.6365V5.7246C197 3.33614 195.064 1.39991 192.675 1.39991L19.199 1.3999C17.4447 1.3999 15.7623 2.09683 14.5219 3.33736Z" stroke="#110F10"/>
</svg>
