<svg width="351" height="361" viewBox="0 0 351 361" fill="none" xmlns="http://www.w3.org/2000/svg">
<path d="M0 346.403V16.8097C0 8.36747 6.8163 1.50923 15.2584 1.45744L154.832 0.601197C163.047 0.550804 170.69 4.79679 174.987 11.7975L180.534 20.8328C184.682 27.5916 191.963 31.7994 199.89 32.0204L265.473 33.8486C272.136 34.0343 278.564 31.3795 283.154 26.546L299.947 8.86267C304.38 4.19431 310.535 1.55095 316.973 1.55097L326.919 1.55099C339.886 1.55102 350.399 12.0635 350.399 25.0313V345.5C350.399 353.979 343.525 360.853 335.046 360.853H14.4494C6.46923 360.853 0 354.384 0 346.403Z" fill="#DAFF02"/>
</svg>
