<svg width="145" height="53" viewBox="0 0 145 53" fill="none" xmlns="http://www.w3.org/2000/svg">
<path d="M10.5627 2.21719L2.09257 10.688C1.18561 11.5951 0.676089 12.8252 0.676089 14.1079V46.1534C0.676089 49.6099 2.92825 51.9545 6.3847 51.965C27.9181 52.0308 103.687 51.9361 117.541 51.9188L119.302 51.9166C119.58 51.9163 119.856 51.8659 120.071 51.6906C120.72 51.161 121.842 49.8867 123.734 48.9793C124.265 48.7248 124.855 48.6328 125.444 48.6369L140.816 48.7421C142.571 48.7542 144 47.3348 144 45.5798V3.96285C144 2.21629 142.584 0.800415 140.838 0.800415H13.9829C12.7 0.800415 11.4697 1.31005 10.5627 2.21719Z" stroke="white" stroke-opacity="0.3" stroke-width="0.585001"/>
</svg>
