<svg width="198" height="72" viewBox="0 0 198 72" fill="none" xmlns="http://www.w3.org/2000/svg">
<path d="M14.5219 2.93747L2.93882 14.5215C1.69853 15.7619 1.00176 17.4441 1.00176 19.1983V63.0211C1.00176 67.7479 4.08162 70.9542 8.80838 70.9686C39.9609 71.0638 154.119 70.9133 163.226 70.9024C163.605 70.902 163.982 70.833 164.276 70.5933C165.164 69.8691 166.699 68.1264 169.286 66.8855C170.012 66.5376 170.819 66.4118 171.624 66.4173L192.646 66.5612C195.046 66.5777 197 64.6367 197 62.2366V5.32469C197 2.93623 195.064 1 192.675 1H19.199C17.4447 1 15.7623 1.69694 14.5219 2.93747Z" stroke="white" stroke-opacity="0.3" stroke-width="0.8"/>
</svg>
