<svg width="354" height="457" viewBox="0 0 354 457" fill="none" xmlns="http://www.w3.org/2000/svg">
    <path d="M1 434.663V24.3461C1 11.8601 11.096 1.72445 23.582 1.67556L185.559 1.04143C192.456 1.01442 199.205 3.04529 204.942 6.87436L239.117 29.6827C244.405 33.212 250.561 35.2195 256.914 35.4855L271.638 36.1021C283.228 36.5875 293.865 29.7122 298.182 18.945C302.343 8.56668 312.4 1.76391 323.581 1.76393L324.41 1.76393C340.2 1.76395 353 14.5641 353 30.3538V433.329C353 445.85 342.85 456 330.329 456H22.3372C10.553 456 1 446.447 1 434.663Z"
          stroke="white" stroke-opacity="0.3"/>
</svg>
