<svg width="764" height="592" viewBox="0 0 764 592" fill="none" xmlns="http://www.w3.org/2000/svg">
    <path d="M1 569.663V24.4027C1 11.8945 11.1306 1.74967 23.6388 1.73201L529.44 1.01793C537.641 1.00635 545.58 3.90163 551.847 9.18954L583.828 36.1708C589.893 41.2874 597.529 44.1692 605.463 44.3348L663.498 45.547C674.492 45.7766 684.944 40.7773 691.665 32.0735L705.421 14.2604C711.507 6.3792 720.902 1.76391 730.859 1.76392C748.61 1.76395 763 16.1538 763 33.9046V568.329C763 580.85 752.85 591 740.329 591H22.3372C10.553 591 1 581.447 1 569.663Z"
          stroke="white" stroke-opacity="0.3"/>
</svg>
