<svg width="1200" height="483" viewBox="0 0 1200 483" fill="none" xmlns="http://www.w3.org/2000/svg">
<path d="M1 460.663V24.417C1 11.9032 11.1392 1.75605 23.653 1.74626L965.453 1.00992C973.646 1.00351 981.576 3.89849 987.838 9.18155L1019.83 36.1708C1025.89 41.2874 1033.53 44.1692 1041.46 44.3348L1099.5 45.547C1110.49 45.7766 1120.94 40.7773 1127.67 32.0735L1141.42 14.2604C1147.51 6.3792 1156.9 1.76391 1166.86 1.76392C1184.61 1.76395 1199 16.1538 1199 33.9046V459.329C1199 471.85 1188.85 482 1176.33 482H22.3372C10.553 482 1 472.447 1 460.663Z" stroke="white" stroke-opacity="0.3"/>
</svg>
