<svg width="377" height="424" viewBox="0 0 377 424" fill="none" xmlns="http://www.w3.org/2000/svg">
<path d="M362.678 1.11358e-05L14.3916 0C6.48156 0 0.0691897 6.44738 0.0690793 14.3575C0.0665189 197.825 0.0166905 340.074 0.0032927 375.116C0.00115901 380.697 0.604195 386.582 4.976 390.051C7.39594 391.971 10.9565 393.925 16.1709 395.325C20.167 396.397 24.1643 398.18 25.8792 401.946C27.6006 405.726 28.7096 410.207 30.2524 414.775C32.097 420.235 37.4873 423.333 43.2509 423.322C74.5946 423.265 130.719 422.976 171.802 422.976C187.079 422.976 197.862 383.755 209.078 383.755C256.505 383.755 308.042 383.876 360.474 383.899C369.601 383.903 377 376.504 377 367.377V14.3225C377 6.41239 370.588 1.13787e-05 362.678 1.11358e-05Z" fill="#FF4D00"/>
</svg>
