<svg width="351" height="197" viewBox="0 0 351 197" fill="none" xmlns="http://www.w3.org/2000/svg">
    <path d="M10.0644 0L340.711 1.04614e-05C346.234 1.0631e-05 350.711 4.47716 350.711 10V149.632C350.711 155.155 346.233 159.632 340.711 159.631C290.085 159.616 240.238 159.495 194.499 159.495C184.064 159.495 174.034 195.981 159.822 195.981C123.835 195.981 75.4424 196.219 45.5709 196.291C36.9121 196.312 29.0961 191.534 26.5321 183.263C25.1016 178.649 23.6827 174.431 20.8776 171.434C3.32868 168.921 0.329818 160.347 0.0279383 159.304C0.0133799 168.526 0 159.2 0 159.2C0 159.2 0.00821005 159.236 0.0279383 159.304C0.0447529 148.653 0.0631396 113.259 0.0642996 10.1775C0.0643617 4.65461 4.54151 0 10.0644 0Z"
          fill="#FF4D00"/>
</svg>
