<svg width="669" height="751" viewBox="0 0 669 751" fill="none" xmlns="http://www.w3.org/2000/svg">
<path d="M643.616 1.97388e-05L26.26 0C12.2389 0 0.872643 11.4283 0.872447 25.4494C0.867908 350.656 0.779585 602.801 0.755836 664.914C0.752054 674.806 1.82098 685.239 9.57023 691.387C13.8597 694.79 20.171 698.254 29.4139 700.735C36.4972 702.636 43.5825 705.796 46.6222 712.471C49.6736 719.171 51.6393 727.115 54.3741 735.211C57.6437 744.89 67.1983 750.38 77.4146 750.362C132.973 750.261 232.457 749.749 305.278 749.749C332.358 749.749 351.471 680.227 371.353 680.227C455.42 680.227 546.771 680.442 639.71 680.482C655.888 680.49 669.003 667.374 669.003 651.196V25.3874C669.003 11.3663 657.637 2.01694e-05 643.616 1.97388e-05Z" fill="#FF4D00"/>
</svg>
